<svg xmlns="http://www.w3.org/2000/svg" xmlns:xlink="http://www.w3.org/1999/xlink" width="1000" zoomAndPan="magnify" viewBox="0 0 750 749.999995" height="1000" preserveAspectRatio="xMidYMid meet" version="1.0"><defs><clipPath id="f1262ac35a"><path d="M 198.515625 197.609375 L 293.753906 197.609375 L 293.753906 294.796875 L 198.515625 294.796875 Z M 198.515625 197.609375 " clip-rule="nonzero"/></clipPath><clipPath id="e102efa32c"><path d="M 293.753906 -93.664062 L 293.753906 266.695312 L 246.121094 294.503906 L 198.5 266.695312 L 198.5 -93.664062 L 246.121094 -65.855469 Z M 293.753906 -93.664062 " clip-rule="nonzero"/></clipPath><clipPath id="5e04b93c72"><path d="M 198.515625 197.609375 L 551.261719 197.609375 L 551.261719 550.570312 L 198.515625 550.570312 Z M 198.515625 197.609375 " clip-rule="nonzero"/></clipPath><clipPath id="4077952493"><path d="M 154.265625 531.390625 L 518.832031 146.21875 L 604.40625 227.222656 L 239.839844 612.386719 Z M 154.265625 531.390625 " clip-rule="nonzero"/></clipPath><clipPath id="3964d762b6"><path d="M 302 299.492188 L 551.261719 299.492188 L 551.261719 550.570312 L 302 550.570312 Z M 302 299.492188 " clip-rule="nonzero"/></clipPath><clipPath id="1e85bbb0fe"><path d="M 302.585938 685.015625 L 667.152344 299.855469 L 752.726562 380.851562 L 388.160156 766.019531 Z M 302.585938 685.015625 " clip-rule="nonzero"/></clipPath></defs><g clip-path="url(#f1262ac35a)"><g clip-path="url(#e102efa32c)"><path fill="#fa7921" d="M 198.5 -93.664062 L 293.753906 -93.664062 L 293.753906 294.425781 L 198.5 294.425781 Z M 198.5 -93.664062 " fill-opacity="1" fill-rule="nonzero"/></g></g><g clip-path="url(#5e04b93c72)"><g clip-path="url(#4077952493)"><path fill="#ffffff" d="M 154.265625 531.390625 L 518.761719 146.296875 L 604.335938 227.300781 L 239.839844 612.386719 Z M 154.265625 531.390625 " fill-opacity="1" fill-rule="nonzero"/></g></g><g clip-path="url(#3964d762b6)"><g clip-path="url(#1e85bbb0fe)"><path fill="#ffffff" d="M 302.585938 685.015625 L 667.082031 299.933594 L 752.65625 380.929688 L 388.160156 766.019531 Z M 302.585938 685.015625 " fill-opacity="1" fill-rule="nonzero"/></g></g></svg>